Coordinates
version=1
nRows=11
nColumns=36
inDegrees=yes

Units are S.I. units (second, meters, Newtons, ...)
If the header above contains a line with 'inDegrees', this indicates whether rotational values are in degrees (yes) or radians (no).

endheader
time	pelvis_tilt	pelvis_list	pelvis_rotation	pelvis_tx	pelvis_ty	pelvis_tz	hip_flexion_r	hip_adduction_r	hip_rotation_r	knee_angle_r	knee_angle_r_beta	ankle_angle_r	subtalar_angle_r	mtp_angle_r	hip_flexion_l	hip_adduction_l	hip_rotation_l	knee_angle_l	knee_angle_l_beta	ankle_angle_l	subtalar_angle_l	mtp_angle_l	lumbar_extension	lumbar_bending	lumbar_rotation	arm_flex_r	arm_add_r	arm_rot_r	elbow_flex_r	pro_sup_r	arm_flex_l	arm_add_l	arm_rot_l	elbow_flex_l	pro_sup_l
      2.79166670	    -25.05307281	      0.67403420	     -2.75033980	      0.21191947	      0.84084176	     -0.10468753	     60.19125072	     -5.05837584	      3.60139338	     68.96976021	      1.20374940	     24.92400939	     -7.72323526	     -7.49999987	     59.60551762	     -7.88840867	     -0.52329351	     70.68844011	      1.23374602	     28.28595455	     -2.44743122	     -7.49999987	    -29.59396809	     -1.37066733	      0.63776302	     14.07799098	     -7.03777729	    -21.67060897	     23.68838275	     89.41074233	     12.80110976	    -16.56149260	    -26.37545685	     17.60258317	     70.73360045
      2.79583330	    -24.59749050	      0.40287987	     -2.67240945	      0.21406185	      0.85022993	     -0.10031870	     58.72076777	     -4.65679034	      3.14249983	     67.45902179	      1.17738204	     24.20034131	     -8.22723929	     -7.49999987	     58.52088096	     -8.10539191	     -0.28482572	     69.60626002	      1.21485842	     27.06674018	     -2.89933607	     -7.49999987	    -29.20301543	     -1.17852807	      0.96370794	     12.11730854	     -6.55916245	    -26.21632390	     24.96148242	     88.39716532	     11.16224249	    -16.44440283	    -30.07730101	     17.62897318	     70.32756735
      2.80000000	    -24.21415061	      0.12662391	     -2.64674749	      0.21599338	      0.85618106	     -0.10138670	     57.41254661	     -4.36469953	      2.73748252	     66.12890626	      1.15416715	     23.25223828	     -8.44971681	     -7.49999987	     57.50807030	     -8.33911269	     -0.05087696	     68.25206081	      1.19122318	     26.13372930	     -3.09807688	     -7.49999987	    -28.43704779	     -1.17168702	      0.63388027	     10.68680027	     -6.77588101	    -27.40368943	     26.11589036	     86.43340347	      8.96813144	    -17.05417854	    -31.01474360	     17.21963009	     69.36906053
      2.80416670	    -24.31652177	      0.05152346	     -2.76363034	      0.21764588	      0.85972690	     -0.10385304	     56.88204448	     -4.22893932	      2.59663315	     65.07953734	      1.13585220	     22.41646293	     -8.54620419	     -7.49999987	     57.06437237	     -8.42803260	     -0.07944231	     67.23967451	      1.17355371	     25.13665270	     -3.65734416	     -7.49999987	    -27.17878038	     -1.31894900	      0.95492159	      8.98063308	     -6.56136637	    -35.66208510	     30.05481832	     82.77951341	      7.21011635	    -16.97953391	    -35.37000414	     17.41984588	     67.84552519
      2.80833330	    -24.35037202	     -0.11050527	     -2.87755562	      0.21861986	      0.86584160	     -0.10311958	     56.25327857	     -4.10154922	      2.33931000	     63.92784847	      1.11575144	     21.63223509	     -8.31518759	     -7.49999987	     56.61951237	     -8.61112750	     -0.28597862	     66.21820288	      1.15572566	     24.21114765	     -3.98445462	     -7.49999987	    -26.04757659	     -1.35276163	      1.03356549	      7.69096457	     -6.77423078	    -42.88418517	     35.83335340	     81.70274423	      5.22339756	    -16.96658247	    -38.51370112	     17.73963216	     68.12005126
      2.81250000	    -24.40829242	     -0.14888527	     -3.14506364	      0.21960029	      0.87278558	     -0.10404008	     55.62759996	     -3.98289475	      2.23934650	     62.51827414	      1.09114973	     20.78280142	     -8.18288946	     -7.49999987	     55.92502451	     -8.68824307	     -0.39511008	     64.97705205	      1.13406350	     23.55823160	     -4.06587818	     -7.49999987	    -25.09889500	     -1.55229380	      1.03309540	      7.02681674	     -7.20555757	    -49.75647266	     43.48606094	     80.08079443	      3.20974019	    -16.80183559	    -40.95983963	     18.32792205	     68.47176578
      2.81666670	    -24.65659310	     -0.22187979	     -3.41254635	      0.22537958	      0.87534977	     -0.10774520	     55.27817170	     -3.92476890	      2.15018042	     61.49599482	      1.07330759	     19.81166095	     -8.31509860	     -7.49999987	     55.48740653	     -8.73013862	     -0.46827275	     64.02397211	      1.11742911	     23.10698192	     -4.10450871	     -7.49999987	    -23.49948439	     -1.48291706	     -0.27726847	      7.15922736	     -8.20697863	    -53.50175188	     51.58789198	     79.08263031	     -0.36682061	    -16.66461256	    -41.84945708	     18.50799195	     68.56622924
      2.82083330	    -24.03931602	     -0.33984139	     -3.56623239	      0.22904806	      0.88316847	     -0.10774754	     53.80708070	     -4.01317605	      1.86866882	     60.20443312	      1.05076558	     18.97874377	     -8.25713615	     -7.49999987	     54.04292953	     -8.77899704	     -0.63608888	     63.03680168	      1.10019974	     22.59710911	     -4.03418360	     -7.49999987	    -23.40885692	     -1.60228254	      1.54600957	      6.20193870	     -9.50434706	    -59.98994184	     61.49517627	     75.53821334	     -0.82642773	    -15.86272491	    -43.55691343	     20.04534141	     68.79744207
      2.82500000	    -23.69208321	     -0.43451938	     -3.64792888	      0.23292443	      0.88933551	     -0.11101521	     52.62966483	     -4.19763810	      1.63885454	     58.96194652	      1.02908010	     17.84984467	     -8.37644525	     -7.49999987	     52.84252164	     -8.66312990	     -0.70118481	     61.98343020	      1.08181494	     22.11021581	     -4.19535081	     -7.49999987	    -22.75326546	     -1.41363625	      1.33624051	      6.66966400	    -11.86374188	    -61.65329480	     68.87886485	     73.90744822	     -3.33504270	    -15.17945015	    -44.12273853	     20.78594334	     68.82761365
      2.82916670	    -22.86298599	     -0.46845298	     -3.76571913	      0.23833039	      0.89969496	     -0.11334881	     50.56170007	     -4.46061433	      1.47241733	     57.12924064	      0.99709335	     16.63251819	     -8.23934911	     -7.49999987	     50.81243003	     -8.38749550	     -0.77447669	     60.45031060	      1.05505695	     21.46348525	     -3.99832383	     -7.49999987	    -22.64354604	     -1.21333953	      2.13946158	      6.80031152	    -15.32805442	    -62.73175706	     73.65434842	     72.21534144	     -4.78325705	    -14.23815077	    -44.48169071	     21.44247824	     68.74221879
      2.83333330	    -22.36892846	     -0.44348620	     -3.82234501	      0.24143395	      0.90712196	     -0.11218137	     48.84205574	     -4.62021640	      1.24159416	     55.28353079	      0.96487963	     15.41084119	     -8.11640259	     -7.49999987	     49.15692453	     -8.16793868	     -1.03667229	     58.77824964	      1.02587398	     20.37246424	     -4.23369559	     -7.49999987	    -21.96957159	     -1.17826931	      3.07637424	      6.90885663	    -18.59445569	    -63.40512816	     76.15436325	     70.23976695	     -6.50604848	    -13.86054450	    -44.93873319	     21.63359242	     68.47402120
